<mxfile host="app.diagrams.net" modified="2023-02-17T19:28:45.841Z" agent="5.0 (Windows NT 10.0; Win64; x64) AppleWebKit/537.36 (KHTML, like Gecko) Chrome/110.0.0.0 Safari/537.36 Edg/110.0.1587.46" etag="sGXXyLr37F4WxAqYIO-x" version="20.8.20" type="github">
  <diagram name="Page-1" id="09lzFyWS7ChnjlxKwFv8">
    <mxGraphModel dx="980" dy="540" grid="1" gridSize="10" guides="1" tooltips="1" connect="1" arrows="1" fold="1" page="1" pageScale="1" pageWidth="827" pageHeight="1169" math="0" shadow="0">
      <root>
        <mxCell id="0" />
        <mxCell id="1" parent="0" />
        <mxCell id="X0Wd92SMY3JsqTdoB2Md-23" value="&lt;p style=&quot;margin:0px;margin-top:4px;text-align:center;&quot;&gt;&lt;b&gt;Device&lt;/b&gt;&lt;/p&gt;&lt;hr size=&quot;1&quot;&gt;&lt;p style=&quot;margin:0px;margin-left:4px;&quot;&gt;- type: string&lt;/p&gt;&lt;p style=&quot;margin:0px;margin-left:4px;&quot;&gt;- id: int&lt;/p&gt;&lt;hr size=&quot;1&quot;&gt;&lt;p style=&quot;margin:0px;margin-left:4px;&quot;&gt;+ init(): bool&lt;/p&gt;&lt;p style=&quot;margin:0px;margin-left:4px;&quot;&gt;+ finish(): void&lt;/p&gt;&lt;p style=&quot;margin:0px;margin-left:4px;&quot;&gt;+ write(data: Device Packet)&lt;/p&gt;&lt;p style=&quot;margin:0px;margin-left:4px;&quot;&gt;+ read(): Device Packet Response&lt;/p&gt;&lt;p style=&quot;margin:0px;margin-left:4px;&quot;&gt;+ getType(): string&lt;/p&gt;&lt;p style=&quot;margin:0px;margin-left:4px;&quot;&gt;+ getId(): int&lt;/p&gt;" style="verticalAlign=top;align=left;overflow=fill;fontSize=12;fontFamily=Helvetica;html=1;" vertex="1" parent="1">
          <mxGeometry x="318" y="90" width="190" height="160" as="geometry" />
        </mxCell>
        <mxCell id="X0Wd92SMY3JsqTdoB2Md-27" value="&lt;p style=&quot;margin:0px;margin-top:4px;text-align:center;&quot;&gt;&lt;b&gt;Device Manager&lt;/b&gt;&lt;/p&gt;&lt;hr size=&quot;1&quot;&gt;&lt;p style=&quot;margin:0px;margin-left:4px;&quot;&gt;- devices: Device&lt;/p&gt;&lt;hr size=&quot;1&quot;&gt;&lt;p style=&quot;margin:0px;margin-left:4px;&quot;&gt;+ addDevice(): bool&lt;/p&gt;&lt;p style=&quot;margin:0px;margin-left:4px;&quot;&gt;+ getDevice(id: int): Device&lt;/p&gt;&lt;p style=&quot;margin:0px;margin-left:4px;&quot;&gt;+ removeDevice(): void&lt;/p&gt;" style="verticalAlign=top;align=left;overflow=fill;fontSize=12;fontFamily=Helvetica;html=1;" vertex="1" parent="1">
          <mxGeometry x="40" y="30" width="160" height="110" as="geometry" />
        </mxCell>
        <mxCell id="X0Wd92SMY3JsqTdoB2Md-29" value="devices" style="endArrow=open;html=1;endSize=12;startArrow=diamondThin;startSize=14;startFill=0;edgeStyle=orthogonalEdgeStyle;rounded=0;exitX=1.006;exitY=0.391;exitDx=0;exitDy=0;exitPerimeter=0;entryX=0;entryY=0.25;entryDx=0;entryDy=0;" edge="1" parent="1" source="X0Wd92SMY3JsqTdoB2Md-27" target="X0Wd92SMY3JsqTdoB2Md-23">
          <mxGeometry relative="1" as="geometry">
            <mxPoint x="290" y="260" as="sourcePoint" />
            <mxPoint x="450" y="260" as="targetPoint" />
          </mxGeometry>
        </mxCell>
        <mxCell id="X0Wd92SMY3JsqTdoB2Md-30" value="0..n" style="edgeLabel;resizable=0;html=1;align=left;verticalAlign=top;" connectable="0" vertex="1" parent="X0Wd92SMY3JsqTdoB2Md-29">
          <mxGeometry x="-1" relative="1" as="geometry" />
        </mxCell>
        <mxCell id="X0Wd92SMY3JsqTdoB2Md-31" value="10" style="edgeLabel;resizable=0;html=1;align=right;verticalAlign=top;" connectable="0" vertex="1" parent="X0Wd92SMY3JsqTdoB2Md-29">
          <mxGeometry x="1" relative="1" as="geometry" />
        </mxCell>
        <mxCell id="X0Wd92SMY3JsqTdoB2Md-40" value="&lt;p style=&quot;margin:0px;margin-top:4px;text-align:center;&quot;&gt;&lt;b&gt;Device Packet&lt;/b&gt;&lt;/p&gt;&lt;hr size=&quot;1&quot;&gt;&lt;div style=&quot;height:2px;&quot;&gt;&lt;/div&gt;" style="verticalAlign=top;align=left;overflow=fill;fontSize=12;fontFamily=Helvetica;html=1;" vertex="1" parent="1">
          <mxGeometry x="40.82" y="280" width="170" height="60" as="geometry" />
        </mxCell>
        <mxCell id="X0Wd92SMY3JsqTdoB2Md-41" value="&lt;p style=&quot;margin:0px;margin-top:4px;text-align:center;&quot;&gt;&lt;b&gt;Device Packet Response&lt;/b&gt;&lt;/p&gt;&lt;hr size=&quot;1&quot;&gt;&lt;div style=&quot;height:2px;&quot;&gt;&lt;/div&gt;" style="verticalAlign=top;align=left;overflow=fill;fontSize=12;fontFamily=Helvetica;html=1;" vertex="1" parent="1">
          <mxGeometry x="40.82" y="350" width="170" height="60" as="geometry" />
        </mxCell>
        <mxCell id="X0Wd92SMY3JsqTdoB2Md-42" value="Use" style="endArrow=open;endSize=12;dashed=1;html=1;rounded=0;entryX=1;entryY=0.5;entryDx=0;entryDy=0;exitX=-0.021;exitY=0.662;exitDx=0;exitDy=0;exitPerimeter=0;" edge="1" parent="1" source="X0Wd92SMY3JsqTdoB2Md-23" target="X0Wd92SMY3JsqTdoB2Md-40">
          <mxGeometry width="160" relative="1" as="geometry">
            <mxPoint x="360" y="260" as="sourcePoint" />
            <mxPoint x="430" y="270" as="targetPoint" />
          </mxGeometry>
        </mxCell>
        <mxCell id="X0Wd92SMY3JsqTdoB2Md-43" value="Creates" style="endArrow=open;endSize=12;dashed=1;html=1;rounded=0;exitX=0;exitY=0.75;exitDx=0;exitDy=0;entryX=1.012;entryY=0.399;entryDx=0;entryDy=0;entryPerimeter=0;" edge="1" parent="1" source="X0Wd92SMY3JsqTdoB2Md-23" target="X0Wd92SMY3JsqTdoB2Md-41">
          <mxGeometry width="160" relative="1" as="geometry">
            <mxPoint x="290" y="260" as="sourcePoint" />
            <mxPoint x="290" y="300" as="targetPoint" />
          </mxGeometry>
        </mxCell>
        <mxCell id="X0Wd92SMY3JsqTdoB2Md-44" value="&lt;p style=&quot;margin:0px;margin-top:4px;text-align:center;&quot;&gt;&lt;b&gt;VGA Terminal&lt;/b&gt;&lt;/p&gt;&lt;hr size=&quot;1&quot;&gt;&lt;p style=&quot;margin:0px;margin-left:4px;&quot;&gt;...&lt;/p&gt;&lt;hr size=&quot;1&quot;&gt;&lt;p style=&quot;border-color: var(--border-color); margin: 0px 0px 0px 4px;&quot;&gt;+ write(data: VGA Packet)&lt;/p&gt;&lt;p style=&quot;border-color: var(--border-color); margin: 0px 0px 0px 4px;&quot;&gt;+ read(): VGA Packet Response&lt;/p&gt;" style="verticalAlign=top;align=left;overflow=fill;fontSize=12;fontFamily=Helvetica;html=1;" vertex="1" parent="1">
          <mxGeometry x="500" y="310" width="200" height="90" as="geometry" />
        </mxCell>
        <mxCell id="X0Wd92SMY3JsqTdoB2Md-48" value="&lt;p style=&quot;margin:0px;margin-top:4px;text-align:center;&quot;&gt;&lt;b&gt;1&lt;/b&gt;&lt;/p&gt;&lt;hr size=&quot;1&quot;&gt;&lt;p style=&quot;margin:0px;margin-left:4px;&quot;&gt;...&lt;/p&gt;&lt;hr size=&quot;1&quot;&gt;&lt;p style=&quot;border-color: var(--border-color); margin: 0px 0px 0px 4px;&quot;&gt;+ write(data: 1 Packet)&lt;/p&gt;&lt;p style=&quot;border-color: var(--border-color); margin: 0px 0px 0px 4px;&quot;&gt;+ read(): 1 Packet Response&lt;/p&gt;" style="verticalAlign=top;align=left;overflow=fill;fontSize=12;fontFamily=Helvetica;html=1;" vertex="1" parent="1">
          <mxGeometry x="500" y="425" width="200" height="90" as="geometry" />
        </mxCell>
        <mxCell id="X0Wd92SMY3JsqTdoB2Md-49" value="&lt;p style=&quot;margin:0px;margin-top:4px;text-align:center;&quot;&gt;&lt;b&gt;2&lt;/b&gt;&lt;/p&gt;&lt;hr size=&quot;1&quot;&gt;&lt;p style=&quot;margin:0px;margin-left:4px;&quot;&gt;...&lt;/p&gt;&lt;hr size=&quot;1&quot;&gt;&lt;p style=&quot;border-color: var(--border-color); margin: 0px 0px 0px 4px;&quot;&gt;+ write(data: 2 Packet)&lt;/p&gt;&lt;p style=&quot;border-color: var(--border-color); margin: 0px 0px 0px 4px;&quot;&gt;+ read(): 2 Packet Response&lt;/p&gt;" style="verticalAlign=top;align=left;overflow=fill;fontSize=12;fontFamily=Helvetica;html=1;" vertex="1" parent="1">
          <mxGeometry x="500" y="540" width="200" height="90" as="geometry" />
        </mxCell>
        <mxCell id="X0Wd92SMY3JsqTdoB2Md-50" value="&lt;p style=&quot;margin:0px;margin-top:4px;text-align:center;&quot;&gt;&lt;b&gt;3&lt;/b&gt;&lt;/p&gt;&lt;hr size=&quot;1&quot;&gt;&lt;p style=&quot;margin:0px;margin-left:4px;&quot;&gt;...&lt;/p&gt;&lt;hr size=&quot;1&quot;&gt;&lt;p style=&quot;border-color: var(--border-color); margin: 0px 0px 0px 4px;&quot;&gt;+ write(data: 3 Packet)&lt;/p&gt;&lt;p style=&quot;border-color: var(--border-color); margin: 0px 0px 0px 4px;&quot;&gt;+ read(): 3 Packet Response&lt;/p&gt;" style="verticalAlign=top;align=left;overflow=fill;fontSize=12;fontFamily=Helvetica;html=1;" vertex="1" parent="1">
          <mxGeometry x="500" y="650" width="200" height="90" as="geometry" />
        </mxCell>
        <mxCell id="X0Wd92SMY3JsqTdoB2Md-60" value="" style="endArrow=none;html=1;edgeStyle=orthogonalEdgeStyle;rounded=0;exitX=1;exitY=0.25;exitDx=0;exitDy=0;entryX=1.006;entryY=0.614;entryDx=0;entryDy=0;entryPerimeter=0;" edge="1" parent="1" source="X0Wd92SMY3JsqTdoB2Md-23" target="X0Wd92SMY3JsqTdoB2Md-44">
          <mxGeometry relative="1" as="geometry">
            <mxPoint x="640" y="220" as="sourcePoint" />
            <mxPoint x="800" y="220" as="targetPoint" />
            <Array as="points">
              <mxPoint x="760" y="130" />
              <mxPoint x="760" y="365" />
            </Array>
          </mxGeometry>
        </mxCell>
        <mxCell id="X0Wd92SMY3JsqTdoB2Md-61" value="parent" style="edgeLabel;resizable=0;html=1;align=left;verticalAlign=bottom;" connectable="0" vertex="1" parent="X0Wd92SMY3JsqTdoB2Md-60">
          <mxGeometry x="-1" relative="1" as="geometry" />
        </mxCell>
        <mxCell id="X0Wd92SMY3JsqTdoB2Md-62" value="child" style="edgeLabel;resizable=0;html=1;align=right;verticalAlign=bottom;" connectable="0" vertex="1" parent="X0Wd92SMY3JsqTdoB2Md-60">
          <mxGeometry x="1" relative="1" as="geometry" />
        </mxCell>
        <mxCell id="X0Wd92SMY3JsqTdoB2Md-63" value="" style="endArrow=none;html=1;edgeStyle=orthogonalEdgeStyle;rounded=0;entryX=1;entryY=0.5;entryDx=0;entryDy=0;exitX=1;exitY=0.25;exitDx=0;exitDy=0;" edge="1" parent="1" source="X0Wd92SMY3JsqTdoB2Md-23" target="X0Wd92SMY3JsqTdoB2Md-48">
          <mxGeometry relative="1" as="geometry">
            <mxPoint x="620" y="70" as="sourcePoint" />
            <mxPoint x="521" y="375" as="targetPoint" />
            <Array as="points">
              <mxPoint x="760" y="130" />
              <mxPoint x="760" y="470" />
            </Array>
          </mxGeometry>
        </mxCell>
        <mxCell id="X0Wd92SMY3JsqTdoB2Md-64" value="parent" style="edgeLabel;resizable=0;html=1;align=left;verticalAlign=bottom;" connectable="0" vertex="1" parent="X0Wd92SMY3JsqTdoB2Md-63">
          <mxGeometry x="-1" relative="1" as="geometry" />
        </mxCell>
        <mxCell id="X0Wd92SMY3JsqTdoB2Md-65" value="child" style="edgeLabel;resizable=0;html=1;align=right;verticalAlign=bottom;" connectable="0" vertex="1" parent="X0Wd92SMY3JsqTdoB2Md-63">
          <mxGeometry x="1" relative="1" as="geometry" />
        </mxCell>
        <mxCell id="X0Wd92SMY3JsqTdoB2Md-72" value="" style="endArrow=none;html=1;edgeStyle=orthogonalEdgeStyle;rounded=0;entryX=1;entryY=0.5;entryDx=0;entryDy=0;exitX=1;exitY=0.25;exitDx=0;exitDy=0;" edge="1" parent="1" source="X0Wd92SMY3JsqTdoB2Md-23" target="X0Wd92SMY3JsqTdoB2Md-49">
          <mxGeometry relative="1" as="geometry">
            <mxPoint x="670" y="210" as="sourcePoint" />
            <mxPoint x="640" y="610" as="targetPoint" />
            <Array as="points">
              <mxPoint x="760" y="130" />
              <mxPoint x="760" y="585" />
            </Array>
          </mxGeometry>
        </mxCell>
        <mxCell id="X0Wd92SMY3JsqTdoB2Md-73" value="parent" style="edgeLabel;resizable=0;html=1;align=left;verticalAlign=bottom;" connectable="0" vertex="1" parent="X0Wd92SMY3JsqTdoB2Md-72">
          <mxGeometry x="-1" relative="1" as="geometry" />
        </mxCell>
        <mxCell id="X0Wd92SMY3JsqTdoB2Md-74" value="child" style="edgeLabel;resizable=0;html=1;align=right;verticalAlign=bottom;" connectable="0" vertex="1" parent="X0Wd92SMY3JsqTdoB2Md-72">
          <mxGeometry x="1" relative="1" as="geometry" />
        </mxCell>
        <mxCell id="X0Wd92SMY3JsqTdoB2Md-75" value="" style="endArrow=none;html=1;edgeStyle=orthogonalEdgeStyle;rounded=0;entryX=1;entryY=0.5;entryDx=0;entryDy=0;exitX=1;exitY=0.25;exitDx=0;exitDy=0;" edge="1" parent="1" source="X0Wd92SMY3JsqTdoB2Md-23" target="X0Wd92SMY3JsqTdoB2Md-50">
          <mxGeometry relative="1" as="geometry">
            <mxPoint x="650" y="190" as="sourcePoint" />
            <mxPoint x="620" y="705" as="targetPoint" />
            <Array as="points">
              <mxPoint x="760" y="130" />
              <mxPoint x="760" y="695" />
            </Array>
          </mxGeometry>
        </mxCell>
        <mxCell id="X0Wd92SMY3JsqTdoB2Md-76" value="parent" style="edgeLabel;resizable=0;html=1;align=left;verticalAlign=bottom;" connectable="0" vertex="1" parent="X0Wd92SMY3JsqTdoB2Md-75">
          <mxGeometry x="-1" relative="1" as="geometry" />
        </mxCell>
        <mxCell id="X0Wd92SMY3JsqTdoB2Md-77" value="child" style="edgeLabel;resizable=0;html=1;align=right;verticalAlign=bottom;" connectable="0" vertex="1" parent="X0Wd92SMY3JsqTdoB2Md-75">
          <mxGeometry x="1" relative="1" as="geometry" />
        </mxCell>
        <mxCell id="X0Wd92SMY3JsqTdoB2Md-79" value="&lt;p style=&quot;margin:0px;margin-top:4px;text-align:center;&quot;&gt;&lt;b&gt;VGA Packet&lt;/b&gt;&lt;/p&gt;&lt;hr size=&quot;1&quot;&gt;&lt;div style=&quot;height:2px;&quot;&gt;&lt;/div&gt;" style="verticalAlign=top;align=left;overflow=fill;fontSize=12;fontFamily=Helvetica;html=1;" vertex="1" parent="1">
          <mxGeometry x="40.82" y="450" width="170" height="60" as="geometry" />
        </mxCell>
        <mxCell id="X0Wd92SMY3JsqTdoB2Md-80" value="&lt;p style=&quot;margin:0px;margin-top:4px;text-align:center;&quot;&gt;&lt;b&gt;VGA Packet Response&lt;/b&gt;&lt;/p&gt;&lt;hr size=&quot;1&quot;&gt;&lt;div style=&quot;height:2px;&quot;&gt;&lt;/div&gt;" style="verticalAlign=top;align=left;overflow=fill;fontSize=12;fontFamily=Helvetica;html=1;" vertex="1" parent="1">
          <mxGeometry x="40.82" y="520" width="170" height="60" as="geometry" />
        </mxCell>
        <mxCell id="X0Wd92SMY3JsqTdoB2Md-81" value="Use" style="endArrow=open;endSize=12;dashed=1;html=1;rounded=0;entryX=1;entryY=0.5;entryDx=0;entryDy=0;exitX=0;exitY=0.75;exitDx=0;exitDy=0;" edge="1" parent="1" source="X0Wd92SMY3JsqTdoB2Md-44" target="X0Wd92SMY3JsqTdoB2Md-79">
          <mxGeometry width="160" relative="1" as="geometry">
            <mxPoint x="446" y="340" as="sourcePoint" />
            <mxPoint x="230" y="404" as="targetPoint" />
          </mxGeometry>
        </mxCell>
        <mxCell id="X0Wd92SMY3JsqTdoB2Md-82" value="Creates" style="endArrow=open;endSize=12;dashed=1;html=1;rounded=0;exitX=-0.005;exitY=0.921;exitDx=0;exitDy=0;entryX=1;entryY=0.5;entryDx=0;entryDy=0;exitPerimeter=0;" edge="1" parent="1" source="X0Wd92SMY3JsqTdoB2Md-44" target="X0Wd92SMY3JsqTdoB2Md-80">
          <mxGeometry width="160" relative="1" as="geometry">
            <mxPoint x="448" y="380" as="sourcePoint" />
            <mxPoint x="230" y="514" as="targetPoint" />
          </mxGeometry>
        </mxCell>
        <mxCell id="X0Wd92SMY3JsqTdoB2Md-83" value="" style="endArrow=none;html=1;edgeStyle=orthogonalEdgeStyle;rounded=0;exitX=1;exitY=0.75;exitDx=0;exitDy=0;entryX=1;entryY=0.75;entryDx=0;entryDy=0;" edge="1" parent="1" source="X0Wd92SMY3JsqTdoB2Md-40" target="X0Wd92SMY3JsqTdoB2Md-79">
          <mxGeometry relative="1" as="geometry">
            <mxPoint x="310.82" y="470" as="sourcePoint" />
            <mxPoint x="470.82" y="470" as="targetPoint" />
            <Array as="points">
              <mxPoint x="300.82" y="326" />
              <mxPoint x="300.82" y="495" />
            </Array>
          </mxGeometry>
        </mxCell>
        <mxCell id="X0Wd92SMY3JsqTdoB2Md-84" value="parent" style="edgeLabel;resizable=0;html=1;align=left;verticalAlign=bottom;" connectable="0" vertex="1" parent="X0Wd92SMY3JsqTdoB2Md-83">
          <mxGeometry x="-1" relative="1" as="geometry" />
        </mxCell>
        <mxCell id="X0Wd92SMY3JsqTdoB2Md-85" value="child" style="edgeLabel;resizable=0;html=1;align=right;verticalAlign=bottom;" connectable="0" vertex="1" parent="X0Wd92SMY3JsqTdoB2Md-83">
          <mxGeometry x="1" relative="1" as="geometry" />
        </mxCell>
        <mxCell id="X0Wd92SMY3JsqTdoB2Md-91" value="child" style="edgeLabel;resizable=0;html=1;align=right;verticalAlign=bottom;" connectable="0" vertex="1" parent="X0Wd92SMY3JsqTdoB2Md-83">
          <mxGeometry x="1" relative="1" as="geometry">
            <mxPoint y="160" as="offset" />
          </mxGeometry>
        </mxCell>
        <mxCell id="X0Wd92SMY3JsqTdoB2Md-95" value="child" style="edgeLabel;resizable=0;html=1;align=right;verticalAlign=bottom;" connectable="0" vertex="1" parent="X0Wd92SMY3JsqTdoB2Md-83">
          <mxGeometry x="1" relative="1" as="geometry">
            <mxPoint x="-1" y="330" as="offset" />
          </mxGeometry>
        </mxCell>
        <mxCell id="X0Wd92SMY3JsqTdoB2Md-99" value="child" style="edgeLabel;resizable=0;html=1;align=right;verticalAlign=bottom;" connectable="0" vertex="1" parent="X0Wd92SMY3JsqTdoB2Md-83">
          <mxGeometry x="1" relative="1" as="geometry">
            <mxPoint x="-1" y="490" as="offset" />
          </mxGeometry>
        </mxCell>
        <mxCell id="X0Wd92SMY3JsqTdoB2Md-86" value="" style="endArrow=none;html=1;edgeStyle=orthogonalEdgeStyle;rounded=0;exitX=1;exitY=0.75;exitDx=0;exitDy=0;entryX=1;entryY=0.75;entryDx=0;entryDy=0;" edge="1" parent="1" source="X0Wd92SMY3JsqTdoB2Md-41" target="X0Wd92SMY3JsqTdoB2Md-80">
          <mxGeometry relative="1" as="geometry">
            <mxPoint x="230.82" y="410" as="sourcePoint" />
            <mxPoint x="230.82" y="590" as="targetPoint" />
            <Array as="points">
              <mxPoint x="330.82" y="395" />
              <mxPoint x="330.82" y="565" />
            </Array>
          </mxGeometry>
        </mxCell>
        <mxCell id="X0Wd92SMY3JsqTdoB2Md-87" value="parent" style="edgeLabel;resizable=0;html=1;align=left;verticalAlign=bottom;" connectable="0" vertex="1" parent="X0Wd92SMY3JsqTdoB2Md-86">
          <mxGeometry x="-1" relative="1" as="geometry" />
        </mxCell>
        <mxCell id="X0Wd92SMY3JsqTdoB2Md-88" value="child" style="edgeLabel;resizable=0;html=1;align=right;verticalAlign=bottom;" connectable="0" vertex="1" parent="X0Wd92SMY3JsqTdoB2Md-86">
          <mxGeometry x="1" relative="1" as="geometry" />
        </mxCell>
        <mxCell id="X0Wd92SMY3JsqTdoB2Md-92" value="child" style="edgeLabel;resizable=0;html=1;align=right;verticalAlign=bottom;" connectable="0" vertex="1" parent="X0Wd92SMY3JsqTdoB2Md-86">
          <mxGeometry x="1" relative="1" as="geometry">
            <mxPoint y="160" as="offset" />
          </mxGeometry>
        </mxCell>
        <mxCell id="X0Wd92SMY3JsqTdoB2Md-96" value="child" style="edgeLabel;resizable=0;html=1;align=right;verticalAlign=bottom;" connectable="0" vertex="1" parent="X0Wd92SMY3JsqTdoB2Md-86">
          <mxGeometry x="1" relative="1" as="geometry">
            <mxPoint x="-1" y="330" as="offset" />
          </mxGeometry>
        </mxCell>
        <mxCell id="X0Wd92SMY3JsqTdoB2Md-100" value="child" style="edgeLabel;resizable=0;html=1;align=right;verticalAlign=bottom;" connectable="0" vertex="1" parent="X0Wd92SMY3JsqTdoB2Md-86">
          <mxGeometry x="1" relative="1" as="geometry">
            <mxPoint x="-1" y="490" as="offset" />
          </mxGeometry>
        </mxCell>
        <mxCell id="X0Wd92SMY3JsqTdoB2Md-89" value="&lt;p style=&quot;margin:0px;margin-top:4px;text-align:center;&quot;&gt;&lt;b&gt;1 Packet&lt;/b&gt;&lt;/p&gt;&lt;hr size=&quot;1&quot;&gt;&lt;div style=&quot;height:2px;&quot;&gt;&lt;/div&gt;" style="verticalAlign=top;align=left;overflow=fill;fontSize=12;fontFamily=Helvetica;html=1;" vertex="1" parent="1">
          <mxGeometry x="40.56" y="610" width="170" height="60" as="geometry" />
        </mxCell>
        <mxCell id="X0Wd92SMY3JsqTdoB2Md-90" value="&lt;p style=&quot;margin:0px;margin-top:4px;text-align:center;&quot;&gt;&lt;b&gt;1 Packet Response&lt;/b&gt;&lt;/p&gt;&lt;hr size=&quot;1&quot;&gt;&lt;div style=&quot;height:2px;&quot;&gt;&lt;/div&gt;" style="verticalAlign=top;align=left;overflow=fill;fontSize=12;fontFamily=Helvetica;html=1;" vertex="1" parent="1">
          <mxGeometry x="40.56" y="680" width="170" height="60" as="geometry" />
        </mxCell>
        <mxCell id="X0Wd92SMY3JsqTdoB2Md-93" value="&lt;p style=&quot;margin:0px;margin-top:4px;text-align:center;&quot;&gt;&lt;b&gt;2 Packet&lt;/b&gt;&lt;/p&gt;&lt;hr size=&quot;1&quot;&gt;&lt;div style=&quot;height:2px;&quot;&gt;&lt;/div&gt;" style="verticalAlign=top;align=left;overflow=fill;fontSize=12;fontFamily=Helvetica;html=1;" vertex="1" parent="1">
          <mxGeometry x="40.04" y="780" width="170" height="60" as="geometry" />
        </mxCell>
        <mxCell id="X0Wd92SMY3JsqTdoB2Md-94" value="&lt;p style=&quot;margin:0px;margin-top:4px;text-align:center;&quot;&gt;&lt;b&gt;2 Packet Response&lt;/b&gt;&lt;/p&gt;&lt;hr size=&quot;1&quot;&gt;&lt;div style=&quot;height:2px;&quot;&gt;&lt;/div&gt;" style="verticalAlign=top;align=left;overflow=fill;fontSize=12;fontFamily=Helvetica;html=1;" vertex="1" parent="1">
          <mxGeometry x="40.04" y="850" width="170" height="60" as="geometry" />
        </mxCell>
        <mxCell id="X0Wd92SMY3JsqTdoB2Md-97" value="&lt;p style=&quot;margin:0px;margin-top:4px;text-align:center;&quot;&gt;&lt;b&gt;3 Packet&lt;/b&gt;&lt;/p&gt;&lt;hr size=&quot;1&quot;&gt;&lt;div style=&quot;height:2px;&quot;&gt;&lt;/div&gt;" style="verticalAlign=top;align=left;overflow=fill;fontSize=12;fontFamily=Helvetica;html=1;" vertex="1" parent="1">
          <mxGeometry x="40" y="940" width="170" height="60" as="geometry" />
        </mxCell>
        <mxCell id="X0Wd92SMY3JsqTdoB2Md-98" value="&lt;p style=&quot;margin:0px;margin-top:4px;text-align:center;&quot;&gt;&lt;b&gt;3 Packet Response&lt;/b&gt;&lt;/p&gt;&lt;hr size=&quot;1&quot;&gt;&lt;div style=&quot;height:2px;&quot;&gt;&lt;/div&gt;" style="verticalAlign=top;align=left;overflow=fill;fontSize=12;fontFamily=Helvetica;html=1;" vertex="1" parent="1">
          <mxGeometry x="40" y="1010" width="170" height="60" as="geometry" />
        </mxCell>
      </root>
    </mxGraphModel>
  </diagram>
</mxfile>
